<?xml version="1.0" encoding="UTF-8"?>
<svg class="absolute animate-ring-cw animate-breathe" width="360" height="360"
  style="transform:scale(1);transition:transform 0.15s ease-out" version="1.1" viewBox="0 0 360 360"
  xmlns="http://www.w3.org/2000/svg">
  <g fill="none">
    <g>
      <circle cx="180" cy="180" r="170" stroke-dasharray="8, 4" />
      <line x1="340" x2="350" y1="180" y2="180" />
      <line x1="337.57" x2="347.42" y1="207.78" y2="209.52" />
      <line x1="330.35" x2="339.75" y1="234.72" y2="238.14" />
      <line x1="318.56" x2="327.22" y1="260" y2="265" />
      <line x1="302.57" x2="310.23" y1="282.84" y2="289.27" />
      <line x1="282.85" x2="289.27" y1="302.56" y2="310.23" />
      <line x1="260" x2="265" y1="318.56" y2="327.22" />
      <line x1="234.72" x2="238.14" y1="330.35" y2="339.75" />
      <line x1="207.78" x2="209.52" y1="337.57" y2="347.41" />
      <line x1="180" x2="180" y1="340" y2="350" />
      <line x1="152.22" x2="150.48" y1="337.57" y2="347.41" />
      <line x1="125.28" x2="121.86" y1="330.35" y2="339.75" />
      <line x1="100" x2="95" y1="318.56" y2="327.22" />
      <line x1="77.154" x2="70.726" y1="302.56" y2="310.23" />
      <line x1="57.433" x2="49.772" y1="282.84" y2="289.27" />
      <line x1="41.436" x2="32.776" y1="260" y2="265" />
      <line x1="29.649" x2="20.252" y1="234.72" y2="238.14" />
      <line x1="22.431" x2="12.583" y1="207.78" y2="209.52" />
      <line x1="20" x2="10" y1="180" y2="180" />
      <line x1="22.431" x2="12.583" y1="152.21" y2="150.48" />
      <line x1="29.649" x2="20.252" y1="125.27" y2="121.85" />
      <line x1="41.436" x2="32.776" y1="99.998" y2="94.998" />
      <line x1="57.433" x2="49.772" y1="77.152" y2="70.724" />
      <line x1="77.154" x2="70.726" y1="57.431" y2="49.77" />
      <line x1="100" x2="95" y1="41.434" y2="32.773" />
      <line x1="125.28" x2="121.86" y1="29.647" y2="20.25" />
      <line x1="152.22" x2="150.48" y1="22.428" y2="12.58" />
      <line x1="180" x2="180" y1="19.998" y2="9.9976" />
      <line x1="207.78" x2="209.52" y1="22.428" y2="12.58" />
      <line x1="234.72" x2="238.14" y1="29.647" y2="20.25" />
      <line x1="260" x2="265" y1="41.434" y2="32.773" />
      <line x1="282.85" x2="289.27" y1="57.431" y2="49.77" />
      <line x1="302.57" x2="310.23" y1="77.152" y2="70.724" />
      <line x1="318.56" x2="327.22" y1="99.998" y2="94.998" />
      <line x1="330.35" x2="339.75" y1="125.27" y2="121.85" />
      <line x1="337.57" x2="347.42" y1="152.21" y2="150.48" />
    </g>
    <circle cx="180" cy="180.04" r="140" stroke-dasharray="20, 10, 5, 10" stroke-width="1.5" />
    <circle cx="180" cy="180" r="73.333" stroke-dasharray="3, 12" stroke-width="1.3333" />
    <g transform="translate(-3.28 -1.874)">
      <circle cx="278.54" cy="236.87" r="1.5" />
      <circle cx="238.28" cy="277.14" r="1.5" />
      <circle cx="183.28" cy="291.87" r="1.5" />
      <circle cx="128.28" cy="277.14" r="1.5" />
      <circle cx="88.017" cy="236.87" r="1.5" />
      <circle cx="73.28" cy="181.87" r="1.5" />
      <circle cx="88.017" cy="126.87" r="1.5" />
      <circle cx="128.28" cy="86.611" r="1.5" />
      <circle cx="183.28" cy="71.874" r="1.5" />
      <circle cx="238.28" cy="86.611" r="1.5" />
      <circle cx="278.54" cy="126.87" r="1.5" />
      <circle cx="293.28" cy="181.87" r="1.5" />
      <circle transform="translate(3.28 1.874)" cx="180" cy="180" r="110" fill="none"
        stroke-dasharray="3, 12" stroke-width="2"
        style="transform:scale(1);transition:transform 0.15s ease-out" />
    </g>
  </g>
</svg>
