<?xml version="1.0" encoding="UTF-8" standalone="no"?>
<!-- Created with Inkscape (http://www.inkscape.org/) -->

<svg
   width="219.33368mm"
   height="41.498638mm"
   viewBox="0 0 219.33368 41.498638"
   version="1.1"
   id="svg1"
   inkscape:version="1.4 (e7c3feb1, 2024-10-09)"
   sodipodi:docname="ornament.svg"
   xmlns:inkscape="http://www.inkscape.org/namespaces/inkscape"
   xmlns:sodipodi="http://sodipodi.sourceforge.net/DTD/sodipodi-0.dtd"
   xmlns="http://www.w3.org/2000/svg"
   xmlns:svg="http://www.w3.org/2000/svg">
  <sodipodi:namedview
     id="namedview1"
     pagecolor="#ffffff"
     bordercolor="#000000"
     borderopacity="0.25"
     inkscape:showpageshadow="2"
     inkscape:pageopacity="0.0"
     inkscape:pagecheckerboard="0"
     inkscape:deskcolor="#d1d1d1"
     inkscape:document-units="mm"
     inkscape:zoom="0.58368919"
     inkscape:cx="448.86903"
     inkscape:cy="143.05559"
     inkscape:window-width="1800"
     inkscape:window-height="1102"
     inkscape:window-x="0"
     inkscape:window-y="39"
     inkscape:window-maximized="1"
     inkscape:current-layer="layer1" />
  <defs
     id="defs1" />
  <g
     inkscape:label="Ebene 1"
     inkscape:groupmode="layer"
     id="layer1"
     transform="translate(6.8794,-121.97292)">
    <g
       id="g23"
       inkscape:label="ornament"
       style="fill-opacity:0.992157"
       transform="translate(-2912.0296,617.56203)">
      <g
         id="g10"
         style="fill-opacity:0.992157"
         inkscape:label="right-end-ornament">
        <path
           id="rect13"
           style="fill-opacity:0.992157;stroke-width:0.264583"
           d="m 3122.3603,-488.41706 c -0.1108,0 -0.2,0.0897 -0.2,0.2005 v 17.5674 a 0.88552159,0.88552159 0 0 0 -0.3105,0.55139 h -42.7581 l -5.2819,-12.10314 h -0.7276 v -0.18603 c 0,-0.1662 -0.1335,-0.30024 -0.2997,-0.30024 h -16.7375 c -0.1662,0 -0.2997,0.13404 -0.2997,0.30024 v 0.71262 c 0,0.1662 0.1335,0.29972 0.2997,0.29972 h 16.7364 c 0.1662,0 0.2998,-0.13352 0.2998,-0.29972 v -0.14521 h 0.4826 l 5.2695,12.08143 v 0.0217 h 43.0444 a 0.88552159,0.88552159 0 0 0 0.848,0.63252 0.88552159,0.88552159 0 0 0 0.8852,-0.88521 0.88552159,0.88552159 0 0 0 -0.2909,-0.65681 v -17.59066 c 0,-0.11081 -0.089,-0.2005 -0.2,-0.2005 z m -11.5414,13.75523 c -0.4891,-1.5e-4 -0.8855,0.39617 -0.8857,0.88522 -10e-5,0.48925 0.3964,0.88588 0.8857,0.88573 0.4377,-4e-4 0.8096,-0.32059 0.8749,-0.75344 h 2.7156 v -0.26459 h -2.7151 c -0.066,-0.43287 -0.4376,-0.75285 -0.8754,-0.75292 z"
           transform="translate(3.125e-5)" />
        <g
           id="g4"
           inkscape:label="circles">
          <circle
             style="fill-opacity:0.992157;stroke-width:0.067046"
             id="path16-9"
             cx="3049.3962"
             cy="-475.72534"
             r="0.26458332" />
          <circle
             style="fill-opacity:0.992157;stroke-width:0.167615"
             id="path16-9-15"
             cx="3039.0571"
             cy="-475.72534"
             r="0.66145831" />
          <circle
             style="fill-opacity:0.992157;stroke-width:0.224393"
             id="path16-9-6"
             cx="3033.8877"
             cy="-475.72534"
             r="0.88552159" />
          <circle
             style="fill-opacity:0.992157;stroke-width:0.167615"
             id="path16-9-0"
             cx="3028.718"
             cy="-475.72534"
             r="0.66145831" />
          <circle
             style="fill-opacity:0.992157;stroke-width:0.11733"
             id="path16-9-2"
             cx="3023.5483"
             cy="-475.72534"
             r="0.46302083" />
          <circle
             style="fill-opacity:0.992157;stroke-width:0.11733"
             id="path16-9-7"
             cx="3044.2266"
             cy="-475.72534"
             r="0.46302083" />
          <circle
             style="fill-opacity:0.992157;stroke-width:0.067046"
             id="path16-9-1"
             cx="3018.3789"
             cy="-475.72534"
             r="0.26458332" />
        </g>
        <path
           id="path16-2"
           style="fill-opacity:0.992157;stroke-width:0.129451"
           d="m 3053.2586,-476.89584 c -0.2819,1.4e-4 -0.5104,0.22864 -0.5106,0.51056 3e-4,0.14052 0.058,0.27473 0.1607,0.37104 l -1.1911,2.82876 h -30.2178 v 0.26459 h 30.3842 5e-4 l 6e-4,5.1e-4 1.2624,-2.96725 c 0.036,0.009 0.074,0.013 0.1111,0.0134 0.2823,1.4e-4 0.5112,-0.22876 0.5111,-0.51108 -2e-4,-0.28212 -0.229,-0.5107 -0.5111,-0.51056 z"
           sodipodi:nodetypes="cccccccccccccc" />
        <path
           id="rect19"
           style="fill-opacity:0.992157;stroke-width:0.18338"
           d="m 3105.1025,-480.65733 v 10e-4 l -2.0195,3.94136 h -22.2803 v 0.26459 h 22.4467 5e-4 l 5e-4,5.1e-4 2.0201,-3.94291 h 9.1596 v -0.26458 z"
           sodipodi:nodetypes="cccccccccccc"
           transform="translate(3.125e-5)" />
        <path
           d="m 3000.2366,-482.49321 c -0.2306,-7e-5 -0.4176,0.1869 -0.4176,0.41754 0,0.23064 0.187,0.41762 0.4176,0.41755 0.1766,-4.2e-4 0.3339,-0.11196 0.3927,-0.27854 h 53.6121 v -0.26458 h -53.6069 c -0.055,-0.17369 -0.2158,-0.29185 -0.3979,-0.29197 z"
           style="fill-opacity:0.992157;stroke-width:0.264583"
           id="path1"
           sodipodi:nodetypes="cscccccc"
           transform="translate(3.125e-5)" />
        <path
           id="rect34"
           style="fill-opacity:0.992157;stroke-width:0.279111"
           d="m 1887.0215,-2554.5614 -0.1098,5.2671 c 0,0.1546 -0.1245,0.28 -0.2792,0.2791 l -1.3381,-0.01 c -0.1546,-9e-4 -0.2791,-0.1245 -0.2791,-0.2791 v -7.0055 c 0,-0.1547 0.064,-0.2224 0.064,-0.2224 z"
           sodipodi:nodetypes="cssssscc"
           transform="matrix(0.70837346,0.70583782,-0.69983226,0.71430721,3.125e-5,7.9166667e-6)" />
      </g>
      <g
         id="g2"
         transform="translate(-1.1667,-0.0752735)"
         style="fill-opacity:0.992157"
         inkscape:label="left-end-ornament">
        <path
           id="rect13-9"
           style="fill-opacity:0.992157;stroke-width:0.251262"
           d="m 2907.6837,-486.96255 c -0.1,0 -0.1803,0.0804 -0.1803,0.18035 v 15.75098 a 0.88552159,0.88552159 0 0 0 -0.3204,0.68057 0.88552159,0.88552159 0 0 0 0.8852,0.88522 0.88552159,0.88552159 0 0 0 0.8857,-0.88522 0.88552159,0.88552159 0 0 0 -0.2909,-0.65629 v -15.77526 c 0,-0.0999 -0.08,-0.18035 -0.1803,-0.18035 z"
           transform="translate(0,-0.1960065)"
           inkscape:label="pillar" />
        <path
           d="m 2906.3202,-492.54195 3.7636,3.68514 c 0.1095,0.10912 0.284,0.11212 0.3931,0.002 l 0.9436,-0.94883 c 0.1089,-0.10972 0.1106,-0.28591 0,-0.39639 l -4.9029,-5.0039 c -0.1095,-0.10912 -0.2007,-0.1139 -0.2007,-0.1139 z"
           style="fill-opacity:0.992157;stroke-width:0.279106"
           id="path1-9"
           transform="translate(0,-0.1960065)"
           inkscape:label="arrow-half" />
      </g>
      <g
         id="g6"
         transform="translate(0,0.24045308)"
         style="display:inline;fill-opacity:0.992157"
         inkscape:label="left-bottom-ornament">
        <path
           id="path16-8"
           style="fill-opacity:0.992157;stroke-width:0.224393"
           d="m 2926.023,-473.16476 -20.8728,6.72175 v 0.26458 l 20.8728,-6.72175 v 5.2e-4 h 15.7019 l 2.02,3.94291 5e-4,-5.2e-4 h 5e-4 21.5682 c 0.065,0.43348 0.4371,0.7543 0.8754,0.75448 0.4891,-1.2e-4 0.8854,-0.39668 0.8853,-0.88574 -2e-4,-0.48885 -0.3964,-0.88509 -0.8853,-0.88521 -0.4372,2.9e-4 -0.8088,0.31966 -0.8748,0.75189 h -21.4024 l -2.0195,-3.94136 v -0.001 h -15.8698 z"
           sodipodi:nodetypes="ccccccccccccccccccc"
           inkscape:label="line-1" />
        <circle
           style="fill-opacity:0.992157;stroke-width:0.067046"
           id="path16-9-9"
           cx="2952.6921"
           cy="-466.5676"
           r="0.26458332"
           inkscape:label="circle-7" />
        <circle
           style="display:inline;fill-opacity:0.992157;stroke-width:0.11733"
           id="path16-9-7-0"
           cx="2949.4343"
           cy="-466.5676"
           r="0.46302083"
           inkscape:label="circle-6"
           transform="translate(0,-1.2026639e-5)" />
        <circle
           style="fill-opacity:0.992157;stroke-width:0.167615"
           id="path16-9-15-1"
           cx="2945.7795"
           cy="-466.5676"
           r="0.66145831"
           inkscape:label="circle-5" />
        <circle
           style="fill-opacity:0.992157;stroke-width:0.224393"
           id="path16-9-6-0"
           cx="2941.7021"
           cy="-466.5676"
           r="0.88552159"
           inkscape:label="circle-4" />
        <circle
           style="fill-opacity:0.992157;stroke-width:0.167615"
           id="path16-9-0-9"
           cx="2938.7527"
           cy="-469.33066"
           r="0.66145831"
           inkscape:label="circle-3" />
        <circle
           style="fill-opacity:0.992157;stroke-width:0.11733"
           id="path16-9-2-3"
           cx="2936.1035"
           cy="-469.33066"
           r="0.46302083"
           inkscape:label="circle-2" />
        <circle
           style="fill-opacity:0.992157;stroke-width:0.067046"
           id="path16-9-1-0"
           cx="2933.4543"
           cy="-469.33066"
           r="0.26458332"
           inkscape:label="circle-1" />
      </g>
      <g
         id="g31"
         transform="translate(-10.583333,-1.4724594)"
         style="font-variation-settings:normal;display:inline;opacity:1;vector-effect:none;fill-opacity:0.992157;stroke-width:0.394755;stroke-linecap:butt;stroke-linejoin:miter;stroke-miterlimit:4;stroke-dasharray:none;stroke-dashoffset:0;stroke-opacity:1;-inkscape-stroke:none;stop-color:#000000;stop-opacity:1"
         inkscape:label="left-top-ornament">
        <path
           id="rect33"
           style="display:inline;stroke-width:0.285724"
           transform="matrix(1,0,-0.51449827,0.85749142,10.583333,1.6684551)"
           d="m 2694.5215,-553.43945 h 5.2324 v 1.69492 h -5.2324 z"
           inkscape:label="stripe-0" />
        <path
           id="use24"
           style="display:inline;stroke-width:0.263884"
           inkscape:label="stripe-1"
           transform="matrix(1,0,-0.5,0.8660254,-2.3023085e-7,-7.3500385e-6)"
           d="m 2723.1702,-549.20892 h 1.662 v 4.89339 h -1.662 z" />
        <path
           id="rect23"
           style="stroke-width:0.263884"
           inkscape:label="stripe-2"
           transform="matrix(1,0,-0.5,0.8660254,0,0)"
           d="m 2725.9807,-549.27521 h 1.6621 v 4.8934 h -1.6621 z" />
        <path
           id="use25"
           style="stroke-width:0.263884"
           inkscape:label="stripe-3"
           transform="matrix(1,0,-0.5,0.8660254,0,0)"
           d="m 2728.8245,-549.27521 h 1.662 v 4.8934 h -1.662 z" />
        <path
           id="use26"
           style="stroke-width:0.263884"
           inkscape:label="stripe-4"
           transform="matrix(1,0,-0.5,0.8660254,0,0)"
           d="m 2731.668,-549.27521 h 1.662 v 4.8934 h -1.662 z" />
        <path
           id="use27"
           style="stroke-width:0.263884"
           inkscape:label="stripe-5"
           transform="matrix(1,0,-0.5,0.8660254,0,0)"
           d="m 2734.5117,-549.27521 h 1.6621 v 4.8934 h -1.6621 z" />
        <path
           id="use28"
           style="stroke-width:0.263884"
           inkscape:label="stripe-6"
           transform="matrix(1,0,-0.5,0.8660254,0,0)"
           d="m 2737.3555,-549.27521 h 1.662 v 4.8934 h -1.662 z" />
        <path
           id="use29"
           style="stroke-width:0.263884"
           inkscape:label="stripe-7"
           transform="matrix(1,0,-0.5,0.8660254,0,0)"
           d="m 2740.199,-549.27521 h 1.662 v 4.8934 h -1.662 z" />
        <path
           id="use30"
           style="fill-opacity:0.992157;stroke-width:0.263884"
           d="m 2743.043,-549.27495 v 1.3426 h 1.6619 v -1.3426 z m -3e-4,1.73165 -10e-5,3.16136 h 1.6619 l 1e-4,-3.16136 z"
           transform="matrix(1,0,-0.5,0.8660254,0,0)"
           inkscape:label="stripe-8" />
        <path
           id="rect19-1"
           style="fill-opacity:0.992157;stroke-width:0.18338"
           d="m 2967.9893,-480.9391 v 10e-4 l 1.8056,3.66784 h 16.0932 l -0.185,0.26459 h -16.0746 -5e-4 l -5e-4,5.1e-4 -1.8062,-3.66939 h -7.0162 v -0.26458 z"
           sodipodi:nodetypes="cccccccccccc"
           transform="translate(10.583364,1.6684633)"
           inkscape:label="line-1" />
        <rect
           style="fill-opacity:0.992157;stroke-width:0.178184"
           id="rect32"
           width="47.162411"
           height="1.984375"
           x="2912.7397"
           y="-481.75537"
           ry="0.59531254"
           transform="translate(10.583364,1.6684633)"
           inkscape:label="pill-1" />
      </g>
      <g
         id="g9"
         style="font-variation-settings:normal;display:inline;opacity:1;vector-effect:none;fill-opacity:0.992157;stroke-width:0.394755;stroke-linecap:butt;stroke-linejoin:miter;stroke-miterlimit:4;stroke-dasharray:none;stroke-dashoffset:0;stroke-opacity:1;-inkscape-stroke:none;stop-color:#000000;stop-opacity:1"
         inkscape:label="bottom-line">
        <g
           id="g21"
           style="fill-opacity:0.992157"
           inkscape:label="bottom-lines">
          <path
             id="rect19-4"
             style="font-variation-settings:normal;vector-effect:none;fill-opacity:0.992157;stroke-width:0.394755;stroke-linecap:butt;stroke-linejoin:miter;stroke-miterlimit:4;stroke-dasharray:none;stroke-dashoffset:0;stroke-opacity:1;-inkscape-stroke:none;stop-color:#000000;stop-opacity:1"
             d="m 3066.2927,-465.4315 v 0.001 l -1.4903,2.35386 h -154.4441 v 0.26459 h 154.6105 5e-4 l 5e-4,5.1e-4 1.4909,-2.35541 h 4.3971 v -0.26458 z"
             sodipodi:nodetypes="cccccccccccc" />
          <path
             id="rect5"
             style="font-variation-settings:normal;vector-effect:none;fill-opacity:0.992157;stroke-width:0.394755;stroke-linecap:butt;stroke-linejoin:miter;stroke-miterlimit:4;stroke-dasharray:none;stroke-dashoffset:0;stroke-opacity:1;-inkscape-stroke:none;stop-color:#000000;stop-opacity:1"
             d="m 3031.8594,-462.44294 -1.2138,1.22163 h 0.3085 l 0.9498,-0.95653 h 36.7843 v -0.26458 h -36.5213 l 5e-4,-5.2e-4 z" />
          <path
             id="rect5-1"
             style="font-variation-settings:normal;vector-effect:none;fill-opacity:0.992157;stroke-width:0.394755;stroke-linecap:butt;stroke-linejoin:miter;stroke-miterlimit:4;stroke-dasharray:none;stroke-dashoffset:0;stroke-opacity:1;-inkscape-stroke:none;stop-color:#000000;stop-opacity:1"
             d="m 2920.1559,-462.43802 h 111.1804 l -0.2806,0.26459 h -110.8998 z"
             sodipodi:nodetypes="ccccc" />
          <path
             id="rect5-1-9"
             style="font-variation-settings:normal;vector-effect:none;fill-opacity:0.992157;stroke-width:0.394755;stroke-linecap:butt;stroke-linejoin:miter;stroke-miterlimit:4;stroke-dasharray:none;stroke-dashoffset:0;stroke-opacity:1;-inkscape-stroke:none;stop-color:#000000;stop-opacity:1"
             d="m 3029.937,-460.44202 -0.7971,0.77618 h -44.1164 v 0.26458 h 43.9104 l -5e-4,5.2e-4 h 0.2646 l 5e-4,-5.2e-4 v 0 -0.001 l 1.0397,-1.03973 z"
             sodipodi:nodetypes="cccccccccccc" />
          <path
             id="rect5-1-9-1"
             style="font-variation-settings:normal;vector-effect:none;fill-opacity:0.992157;stroke-width:0.394755;stroke-linecap:butt;stroke-linejoin:miter;stroke-miterlimit:4;stroke-dasharray:none;stroke-dashoffset:0;stroke-opacity:1;-inkscape-stroke:none;stop-color:#000000;stop-opacity:1"
             d="m 3064.4259,-461.94168 -0.4174,0.77618 h -32.1002 l -0.2844,0.26458 32.5329,5.2e-4 5e-4,-5.2e-4 v 0 -0.001 l 0.5321,-1.03973 z"
             sodipodi:nodetypes="cccccccccc" />
          <path
             id="rect6"
             style="font-variation-settings:normal;vector-effect:none;fill-opacity:0.992157;stroke-width:0.394755;stroke-linecap:butt;stroke-linejoin:miter;stroke-miterlimit:4;stroke-dasharray:none;stroke-dashoffset:0;stroke-opacity:1;-inkscape-stroke:none;stop-color:#000000;stop-opacity:1"
             d="m 2982.4018,-462.32426 h 0.2751 l 2.5982,2.92181 H 2985 Z"
             sodipodi:nodetypes="ccccc" />
          <rect
             style="font-variation-settings:normal;display:inline;opacity:1;vector-effect:none;fill-opacity:0.992157;stroke-width:0.252506;stroke-linecap:butt;stroke-linejoin:miter;stroke-miterlimit:4;stroke-dasharray:none;stroke-dashoffset:0;stroke-opacity:1;-inkscape-stroke:none;stop-color:#000000;stop-opacity:1"
             id="rect4"
             width="45.157928"
             height="0.26458332"
             x="3071.5005"
             y="-462.38834"
             transform="translate(3.125e-5)" />
          <path
             id="rect1"
             style="font-variation-settings:normal;display:inline;opacity:1;vector-effect:none;fill-opacity:0.992157;stroke-width:0.264583;stroke-linecap:butt;stroke-linejoin:miter;stroke-miterlimit:4;stroke-dasharray:none;stroke-dashoffset:0;stroke-opacity:1;-inkscape-stroke:none;stop-color:#000000;stop-opacity:1"
             d="m 3118.1837,-464.42868 -4.6959,10e-4 -0.3289,0.28286 h 4.9382 l 0.6506,0.65061 -0.1989,0.17285 5.9314,5.86699 -10e-5,-0.89685 z"
             sodipodi:nodetypes="ccccccccc"
             transform="translate(3.125e-5)" />
        </g>
        <g
           id="g50"
           transform="matrix(0.95647839,0,0,0.95647839,130.92029,-17.632065)"
           style="font-variation-settings:normal;display:inline;vector-effect:none;fill-opacity:0.992157;stroke-width:0.394755;stroke-linecap:butt;stroke-linejoin:miter;stroke-miterlimit:4;stroke-dasharray:none;stroke-dashoffset:0;stroke-opacity:1;-inkscape-stroke:none;stop-color:#000000;stop-opacity:1"
           inkscape:label="stripes-2">
          <path
             id="rect7"
             style="font-variation-settings:normal;vector-effect:none;fill-opacity:0.992157;stroke-width:0.45909;stroke-linecap:butt;stroke-linejoin:miter;stroke-miterlimit:4;stroke-dasharray:none;stroke-dashoffset:0;stroke-opacity:1;-inkscape-stroke:none;stop-color:#000000;stop-opacity:1"
             transform="matrix(1,0,-0.6733035,0.73936621,0,0)"
             d="m 2577.6069,-620.44958 h 2.9255 l 0.047,3.23423 h -2.9255 z"
             sodipodi:nodetypes="ccccc" />
          <path
             id="rect7-5"
             style="font-variation-settings:normal;vector-effect:none;fill-opacity:0.992157;stroke-width:0.394755;stroke-linecap:butt;stroke-linejoin:miter;stroke-miterlimit:4;stroke-dasharray:none;stroke-dashoffset:0;stroke-opacity:1;-inkscape-stroke:none;stop-color:#000000;stop-opacity:1"
             d="m 2990.4185,-458.73945 h 3.7277 l -2.1303,2.39128 h -3.7277 z"
             sodipodi:nodetypes="ccccc" />
          <path
             id="use42"
             style="font-variation-settings:normal;vector-effect:none;fill-opacity:0.992157;stroke-width:0.45909;stroke-linecap:butt;stroke-linejoin:miter;stroke-miterlimit:4;stroke-dasharray:none;stroke-dashoffset:0;stroke-opacity:1;-inkscape-stroke:none;stop-color:#000000;stop-opacity:1"
             transform="matrix(1,0,-0.6733035,0.73936621,0,0)"
             d="m 2581.7439,-620.44958 h 2.7792 l 0.047,3.23423 h -2.7792 z"
             sodipodi:nodetypes="ccccc" />
          <path
             id="use43"
             style="font-variation-settings:normal;vector-effect:none;fill-opacity:0.992157;stroke-width:0.45909;stroke-linecap:butt;stroke-linejoin:miter;stroke-miterlimit:4;stroke-dasharray:none;stroke-dashoffset:0;stroke-opacity:1;-inkscape-stroke:none;stop-color:#000000;stop-opacity:1"
             transform="matrix(1,0,-0.6733035,0.73936621,0,0)"
             d="m 2585.7344,-620.44958 h 2.6329 l 0.047,3.23423 h -2.6329 z"
             sodipodi:nodetypes="ccccc" />
          <path
             id="use44"
             style="font-variation-settings:normal;vector-effect:none;fill-opacity:0.992157;stroke-width:0.45909;stroke-linecap:butt;stroke-linejoin:miter;stroke-miterlimit:4;stroke-dasharray:none;stroke-dashoffset:0;stroke-opacity:1;-inkscape-stroke:none;stop-color:#000000;stop-opacity:1"
             transform="matrix(1,0,-0.6733035,0.73936621,0,0)"
             d="m 2589.5789,-620.44958 h 2.4866 l 0.047,3.23423 h -2.4866 z"
             sodipodi:nodetypes="ccccc" />
          <path
             id="use45"
             style="font-variation-settings:normal;vector-effect:none;fill-opacity:0.992157;stroke-width:0.45909;stroke-linecap:butt;stroke-linejoin:miter;stroke-miterlimit:4;stroke-dasharray:none;stroke-dashoffset:0;stroke-opacity:1;-inkscape-stroke:none;stop-color:#000000;stop-opacity:1"
             transform="matrix(1,0,-0.6733035,0.73936621,0,0)"
             d="m 2593.2769,-620.44958 h 2.3403 l 0.047,3.23423 h -2.3403 z"
             sodipodi:nodetypes="ccccc" />
          <path
             id="use46"
             style="font-variation-settings:normal;vector-effect:none;fill-opacity:0.992157;stroke-width:0.45909;stroke-linecap:butt;stroke-linejoin:miter;stroke-miterlimit:4;stroke-dasharray:none;stroke-dashoffset:0;stroke-opacity:1;-inkscape-stroke:none;stop-color:#000000;stop-opacity:1"
             transform="matrix(1,0,-0.6733035,0.73936621,0,0)"
             d="m 2596.8289,-620.44958 h 2.194 l 0.047,3.23423 h -2.194 z"
             sodipodi:nodetypes="ccccc" />
          <path
             id="use47"
             style="font-variation-settings:normal;vector-effect:none;fill-opacity:0.992157;stroke-width:0.45909;stroke-linecap:butt;stroke-linejoin:miter;stroke-miterlimit:4;stroke-dasharray:none;stroke-dashoffset:0;stroke-opacity:1;-inkscape-stroke:none;stop-color:#000000;stop-opacity:1"
             transform="matrix(1,0,-0.6733035,0.73936621,0,0)"
             d="m 2600.2344,-620.44958 h 2.0478 l 0.047,3.23423 h -2.0478 z"
             sodipodi:nodetypes="ccccc" />
          <path
             id="use48"
             style="font-variation-settings:normal;vector-effect:none;fill-opacity:0.992157;stroke-width:0.45909;stroke-linecap:butt;stroke-linejoin:miter;stroke-miterlimit:4;stroke-dasharray:none;stroke-dashoffset:0;stroke-opacity:1;-inkscape-stroke:none;stop-color:#000000;stop-opacity:1"
             transform="matrix(1,0,-0.6733035,0.73936621,0,0)"
             d="m 2603.4937,-620.44958 h 1.9015 l 0.047,3.23423 h -1.9015 z"
             sodipodi:nodetypes="ccccc" />
          <path
             id="use49"
             style="font-variation-settings:normal;vector-effect:none;fill-opacity:0.992157;stroke-width:0.45909;stroke-linecap:butt;stroke-linejoin:miter;stroke-miterlimit:4;stroke-dasharray:none;stroke-dashoffset:0;stroke-opacity:1;-inkscape-stroke:none;stop-color:#000000;stop-opacity:1"
             transform="matrix(1,0,-0.6733035,0.73936621,0,0)"
             d="m 2606.6067,-620.44958 h 1.7553 l 0.047,3.23423 h -1.7553 z"
             sodipodi:nodetypes="ccccc" />
          <path
             id="use50"
             style="font-variation-settings:normal;vector-effect:none;fill-opacity:0.992157;stroke-width:0.45909;stroke-linecap:butt;stroke-linejoin:miter;stroke-miterlimit:4;stroke-dasharray:none;stroke-dashoffset:0;stroke-opacity:1;-inkscape-stroke:none;stop-color:#000000;stop-opacity:1"
             transform="matrix(1,0,-0.6733035,0.73936621,0,0)"
             d="m 2609.5732,-620.44958 h 1.609 l 0.047,3.23423 h -1.609 z"
             sodipodi:nodetypes="ccccc" />
          <path
             id="rect7-5-6"
             style="font-variation-settings:normal;vector-effect:none;fill-opacity:0.992157;stroke-width:0.394755;stroke-linecap:butt;stroke-linejoin:miter;stroke-miterlimit:4;stroke-dasharray:none;stroke-dashoffset:0;stroke-opacity:1;-inkscape-stroke:none;stop-color:#000000;stop-opacity:1"
             d="m 2985.269,-458.73945 3.9381,0.0266 -2.1016,2.01717 z"
             sodipodi:nodetypes="cccc" />
        </g>
        <g
           id="g50-8"
           transform="matrix(-1,0,0,1,6101.1766,2.2576973)"
           style="display:inline;fill-opacity:0.992157"
           inkscape:label="stripes-1">
          <path
             id="rect7-5-6-1"
             style="font-variation-settings:normal;display:inline;opacity:1;vector-effect:none;fill-opacity:0.992157;stroke-width:0.394755;stroke-linecap:butt;stroke-linejoin:miter;stroke-miterlimit:4;stroke-dasharray:none;stroke-dashoffset:0;stroke-opacity:1;-inkscape-stroke:none;stop-color:#000000;stop-opacity:1"
             d="m 2985.269,-458.73945 3.9381,0.0266 -2.1016,2.01717 z"
             sodipodi:nodetypes="cccc"
             transform="translate(8.6209884e-5)"
             inkscape:label="stripe-11" />
          <path
             id="rect7-5-1"
             style="font-variation-settings:normal;display:inline;opacity:1;vector-effect:none;fill-opacity:0.992157;stroke-width:0.394755;stroke-linecap:butt;stroke-linejoin:miter;stroke-miterlimit:4;stroke-dasharray:none;stroke-dashoffset:0;stroke-opacity:1;-inkscape-stroke:none;stop-color:#000000;stop-opacity:1"
             d="m 2990.4185,-458.73945 h 3.7277 l -2.1303,2.39128 h -3.7277 z"
             sodipodi:nodetypes="ccccc"
             transform="translate(8.6209884e-5)"
             inkscape:label="stripe-10" />
          <path
             id="rect7-0"
             style="fill-opacity:0.992157;stroke-width:0.45909"
             transform="matrix(1,0,-0.6733035,0.73936621,0,0)"
             d="m 2577.6069,-620.44958 h 2.9255 l 0.047,3.23423 h -2.9255 z"
             sodipodi:nodetypes="ccccc"
             inkscape:label="stripe-9" />
          <path
             id="use42-0"
             style="fill-opacity:0.992157;stroke-width:0.447466"
             transform="matrix(1,0,-0.6733035,0.73936621,0,0)"
             d="m 2581.7439,-620.44958 h 2.7792 l 0.047,3.23423 h -2.7792 z"
             sodipodi:nodetypes="ccccc"
             inkscape:label="stripe-8" />
          <path
             id="use43-5"
             style="fill-opacity:0.992157;stroke-width:0.435531"
             transform="matrix(1,0,-0.6733035,0.73936621,0,0)"
             d="m 2585.7344,-620.44958 h 2.6329 l 0.047,3.23423 h -2.6329 z"
             sodipodi:nodetypes="ccccc"
             inkscape:label="stripe-7" />
          <path
             id="use44-4"
             style="fill-opacity:0.992157;stroke-width:0.42326"
             transform="matrix(1,0,-0.6733035,0.73936621,0,0)"
             d="m 2589.5789,-620.44958 h 2.4866 l 0.047,3.23423 h -2.4866 z"
             sodipodi:nodetypes="ccccc"
             inkscape:label="stripe-6" />
          <path
             id="use45-2"
             style="fill-opacity:0.992157;stroke-width:0.410623"
             transform="matrix(1,0,-0.6733035,0.73936621,0,0)"
             d="m 2593.2769,-620.44958 h 2.3403 l 0.047,3.23423 h -2.3403 z"
             sodipodi:nodetypes="ccccc"
             inkscape:label="stripe-5" />
          <path
             id="use46-6"
             style="fill-opacity:0.992157;stroke-width:0.397584"
             transform="matrix(1,0,-0.6733035,0.73936621,0,0)"
             d="m 2596.8289,-620.44958 h 2.194 l 0.047,3.23423 h -2.194 z"
             sodipodi:nodetypes="ccccc"
             inkscape:label="stripe-4" />
          <path
             id="use47-7"
             style="fill-opacity:0.992157;stroke-width:0.384102"
             transform="matrix(1,0,-0.6733035,0.73936621,0,0)"
             d="m 2600.2344,-620.44958 h 2.0478 l 0.047,3.23423 h -2.0478 z"
             sodipodi:nodetypes="ccccc"
             inkscape:label="stripe-3" />
          <path
             id="use48-9"
             style="fill-opacity:0.992157;stroke-width:0.37013"
             transform="matrix(1,0,-0.6733035,0.73936621,0,0)"
             d="m 2603.4937,-620.44958 h 1.9015 l 0.047,3.23423 h -1.9015 z"
             sodipodi:nodetypes="ccccc"
             inkscape:label="stripe-2" />
          <path
             id="use49-5"
             style="fill-opacity:0.992157;stroke-width:0.35561"
             transform="matrix(1,0,-0.6733035,0.73936621,0,0)"
             d="m 2606.6067,-620.44958 h 1.7553 l 0.047,3.23423 h -1.7553 z"
             sodipodi:nodetypes="ccccc"
             inkscape:label="stripe-1" />
          <path
             id="use50-9"
             style="fill-opacity:0.992157;stroke-width:0.34047"
             transform="matrix(1,0,-0.6733035,0.73936621,0,0)"
             d="m 2609.5732,-620.44958 h 1.609 l 0.047,3.23423 h -1.609 z"
             sodipodi:nodetypes="ccccc"
             inkscape:label="stripe-0" />
        </g>
      </g>
      <g
         id="g22"
         style="fill-opacity:0.992157"
         inkscape:label="top-line">
        <path
           id="path13"
           style="fill-opacity:0.992157;stroke-width:0.264583"
           d="m 2913.0631,-488.0083 c -0.2306,-7e-5 -0.4176,0.1869 -0.4176,0.41754 0,0.23064 0.187,0.41762 0.4176,0.41755 0.1766,-4.2e-4 0.3339,-0.11196 0.3927,-0.27854 h 200.9774 v -0.26458 H 2913.461 c -0.055,-0.17369 -0.2158,-0.29185 -0.3979,-0.29197 z"
           sodipodi:nodetypes="cccccccc" />
      </g>
    </g>
  </g>
</svg>
